<?xml version="1.0" encoding="UTF-8"?>
<svg id="Layer_2" data-name="Layer 2" xmlns="http://www.w3.org/2000/svg" width="101.074" height="17.763" viewBox="0 0 101.074 17.763">
  <defs>
    <style>
      .cls-1 {
        fill: #f7d20a;
      }

      .cls-1, .cls-2 {
        fill-rule: evenodd;
      }

      .cls-2 {
        fill: none;
        stroke: #f7d20a;
        stroke-miterlimit: 10;
      }
    </style>
  </defs>
  <g id="Layer_1-2" data-name="Layer 1">
    <g id="Page-1">
      <g id="Group-9">
        <path id="Star" class="cls-1" d="m8.264,1.13l2.554,5.174,5.71.83-4.132,4.028.975,5.687-5.107-2.685-5.107,2.685.975-5.687L0,7.134l5.71-.83,2.554-5.174Z"/>
        <path id="Star-Copy-2" class="cls-1" d="m50,1.13l2.554,5.174,5.71.83-4.132,4.028.975,5.687-5.107-2.685-5.107,2.685.975-5.687-4.132-4.028,5.71-.83,2.554-5.174Z"/>
        <path id="Star-Copy" class="cls-1" d="m29.132,1.13l2.554,5.174,5.71.83-4.132,4.028.975,5.687-5.107-2.685-5.107,2.685.975-5.687-4.132-4.028,5.71-.83,2.554-5.174Z"/>
        <path id="Star-Copy-3" class="cls-1" d="m70.868,1.13l2.554,5.174,5.71.83-4.132,4.028.975,5.687-5.107-2.685-5.107,2.685.975-5.687-4.132-4.028,5.71-.83,2.554-5.174Z"/>
        <path id="Star-Copy-5" class="cls-2" d="m91.736,1.13l2.554,5.174,5.71.83-4.132,4.028.975,5.687-5.107-2.685-5.107,2.685.975-5.687-4.132-4.028,5.71-.83,2.554-5.174Z"/>
      </g>
    </g>
  </g>
</svg>